<svg xmlns="http://www.w3.org/2000/svg" fill="none" viewBox="0 0 246 246" height="246" width="246"><path fill="#6e08d4" d="M108.107 85.451s-17.353-26.25-17.353-41.807c0 0 5.314-23.644 31.972-23.644s32.053 23.644 32.053 23.644c0 16.51-17.433 41.807-17.433 41.807s-5.578-2.463-14.62-2.463-14.619 2.463-14.619 2.463m-76.571 51.143c14.11-6.52 45.192-1.75 45.192-1.75s.104 6.102 3.893 14.32c3.79 8.217 8.361 12.255 8.361 12.255s-15.638 26.447-30.612 33.366c0 0-23.706 5.006-34.879-19.223s8.045-38.968 8.045-38.968m137.736-1.75s31.082-4.77 45.192 1.75c0 0 19.218 14.739 8.045 38.968s-34.879 19.223-34.879 19.223c-14.974-6.919-30.612-33.366-30.612-33.366s4.572-4.038 8.361-12.255 3.893-14.32 3.893-14.32m43.379-23.765s17.169-17.111 3.04-39.74-36.976-14.608-36.976-14.608c-13.177 8.246-26.216 36.89-26.216 36.89s5.042 3.429 9.835 11.104c4.792 7.675 5.662 13.715 5.662 13.715s30.67 1.39 44.655-7.361M30.643 71.215c14.231-22.565 37.04-14.44 37.04-14.44 13.141 8.304 26.051 37.007 26.051 37.007s-5.058 3.407-9.885 11.06-5.724 13.689-5.724 13.689-30.676 1.252-44.622-7.562c0 0-17.092-17.19-2.86-39.754m58.118 58.299c0-18.918 15.312-34.26 34.208-34.26s34.208 15.342 34.208 34.26c0 11.414-5.575 21.518-14.129 27.74l12.943 57.233c1.335 5.899-3.146 11.513-9.188 11.513H99.945c-5.971 0-10.436-5.49-9.225-11.343l11.916-57.589c-8.41-6.236-13.875-16.253-13.875-27.554m34.208-22.724c-12.524 0-22.683 10.171-22.683 22.724 0 8.514 4.67 15.941 11.61 19.839l3.678 2.066-13.045 63.045h41.641l-14.22-62.881 3.829-2.085c7.084-3.856 11.873-11.363 11.873-19.984 0-12.553-10.159-22.724-22.683-22.724" clip-rule="evenodd" fill-rule="evenodd"></path></svg>