<?xml version="1.0" encoding="iso-8859-1"?>
<!-- Uploaded to: SVG Repo, www.svgrepo.com, Generator: SVG Repo Mixer Tools -->
<svg fill="#000000" height="800px" width="800px" version="1.1" id="Capa_1" xmlns="http://www.w3.org/2000/svg" xmlns:xlink="http://www.w3.org/1999/xlink" 
	 viewBox="0 0 24.422 24.422" xml:space="preserve">
<g>
	<path fill = '#710cd7' d="M23.932,13.317c0.275,0.456,0.432,0.918,0.475,1.387c0.008,0.101,0.015,0.204,0.015,0.305c0,0.367-0.063,0.737-0.185,1.113
		c-0.335,1.017-0.964,1.753-1.889,2.209c-0.529,0.274-1.093,0.412-1.692,0.412c-0.438,0-0.894-0.071-1.374-0.213
		c-0.393-0.082-0.771-0.239-1.127-0.473c0.072,0.396,0.105,0.781,0.105,1.151c0,0.371-0.033,0.724-0.105,1.06
		c-0.233,0.711-0.65,1.224-1.25,1.54c-0.367,0.223-0.766,0.336-1.205,0.336c-0.262,0-0.537-0.04-0.824-0.123
		c-0.353-0.08-0.688-0.225-0.997-0.434c-0.309-0.208-0.644-0.491-0.997-0.846l-0.03,0.183c-0.335,1.017-0.982,1.759-1.937,2.225
		c-0.499,0.235-1.006,0.362-1.523,0.381c-0.103,0.01-0.211,0.016-0.323,0.016c-0.414,0-0.844-0.05-1.278-0.153
		c-0.671-0.161-1.191-0.4-1.557-0.714L5.808,22.19c-0.133-0.153-0.26-0.31-0.38-0.473c-0.317-0.557-0.478-1.131-0.491-1.722
		c0-0.376,0.067-0.753,0.201-1.127l0.183-0.443l0.623-0.929c-0.435,0.121-0.858,0.188-1.263,0.198c-0.042,0-0.082,0-0.124,0
		c-0.357,0-0.71-0.036-1.066-0.108c-0.204-0.019-0.396-0.071-0.581-0.151c-0.181-0.082-0.344-0.174-0.487-0.275
		c-0.142-0.082-0.259-0.178-0.351-0.29l-0.275-0.335c-0.223-0.355-0.334-0.727-0.334-1.112c0-0.193,0.03-0.386,0.09-0.58
		c0.103-0.254,0.227-0.496,0.374-0.724c0.148-0.229,0.342-0.445,0.587-0.648l0.535-0.411l-0.245-0.064
		c-0.619-0.082-1.154-0.31-1.601-0.686c-0.143-0.101-0.288-0.227-0.433-0.373c-0.148-0.148-0.275-0.303-0.375-0.466
		C0.13,11.014,0,10.551,0,10.085c0-0.387,0.09-0.778,0.274-1.174c0.396-0.895,1.082-1.59,2.058-2.088
		C3.003,6.509,3.689,6.35,4.39,6.35c0.314,0,0.634,0.03,0.958,0.092l0.855,0.244l-0.26-0.305c-0.404-0.68-0.604-1.356-0.595-2.028
		c0-0.234,0.027-0.461,0.079-0.685c0.181-0.895,0.628-1.549,1.339-1.966c0.419-0.194,0.861-0.29,1.329-0.29
		c0.233,0,0.478,0.02,0.732,0.06c0.873,0.234,1.589,0.737,2.147,1.51l0.381,0.594l0.153,0.212l0.09-0.212v-0.06
		c0-0.479,0.203-0.906,0.611-1.283c0.404-0.375,0.847-0.68,1.326-0.914c0.621-0.295,1.259-0.443,1.921-0.443
		c0.366,0,0.737,0.047,1.115,0.138c1.055,0.256,1.832,0.765,2.33,1.526l0.124,0.15c0.366,0.572,0.55,1.165,0.55,1.785
		c0,0.376-0.07,0.763-0.2,1.159l-0.41,0.809l1.156-0.213c0.275-0.021,0.548-0.026,0.816-0.017c0.269,0.011,0.532,0.037,0.785,0.076
		c0.457,0.103,0.879,0.244,1.242,0.465c1.142,0.7,0.888,2.088,0.876,2.28c0,0.143-0.021,0.291-0.06,0.442
		c-0.396,0.896-1.118,1.571-2.164,2.027c0.18,0.083,0.38,0.164,0.592,0.245c0.214,0.081,0.402,0.178,0.565,0.289
		c0.203,0.143,0.381,0.301,0.535,0.473l0.441,0.55L23.932,13.317z M1.738,10.816c0.274,0.478,0.718,0.757,1.341,0.839l0.336,0.06
		l5.062-0.563c0.081-0.336,0.268-0.656,0.56-0.96l-3.094-2.06l-0.961-0.35c-0.211-0.05-0.42-0.071-0.623-0.062
		c-0.447,0-0.885,0.103-1.311,0.306c-0.356,0.123-0.643,0.307-0.861,0.55c-0.22,0.243-0.39,0.514-0.51,0.808
		C1.574,9.617,1.52,9.846,1.507,10.07C1.52,10.334,1.595,10.584,1.738,10.816z M11.599,18.988c0-0.621-0.057-1.223-0.168-1.807
		c-0.109-0.585-0.194-1.146-0.242-1.685c-0.206-0.021-0.405-0.061-0.605-0.121c-0.197-0.062-0.377-0.138-0.538-0.229l-2.943,3.185
		c-0.296,0.254-0.472,0.56-0.535,0.914l-0.151,0.718c0,0.376,0.105,0.743,0.321,1.099c0.292,0.539,0.792,0.89,1.492,1.052
		c0.233,0.06,0.462,0.092,0.686,0.092c0.426,0,0.854-0.101,1.281-0.307c0.314-0.119,0.581-0.298,0.801-0.532
		c0.218-0.234,0.386-0.492,0.51-0.778l0.09-0.32v-1.281H11.599z M6.889,4.034C6.846,4.328,6.862,4.611,6.934,4.88
		c0.073,0.269,0.178,0.552,0.321,0.845L7.454,6.06l3.11,3.095l0.531-0.153l-0.716-3.78c-0.039-0.181-0.09-0.358-0.15-0.526
		c-0.061-0.167-0.143-0.333-0.246-0.494C9.588,3.448,9.055,2.985,8.382,2.813C8.23,2.744,8.094,2.712,7.971,2.723
		c-0.143,0-0.263,0.045-0.366,0.135C7.17,3.082,6.928,3.475,6.889,4.034z M10.319,13.867c0.459,0.416,1.011,0.624,1.662,0.624
		c0.598,0,1.139-0.208,1.616-0.624c0.457-0.398,0.687-0.896,0.687-1.496c0-0.557-0.229-1.066-0.687-1.522
		c-0.437-0.378-0.976-0.565-1.616-0.565c-0.62,0-1.173,0.188-1.662,0.565c-0.233,0.232-0.405,0.472-0.52,0.715
		c-0.109,0.244-0.167,0.514-0.167,0.807C9.632,12.951,9.863,13.448,10.319,13.867z M16.815,19.459
		c0.009-0.08,0.013-0.167,0.013-0.258c0-0.458-0.143-0.92-0.426-1.388l-0.183-0.32l-0.9-1.037l-1.462-1.372l-0.475,0.228
		l-0.596,0.183l0.536,2.774l0.396,1.068c0.417,0.792,0.951,1.26,1.601,1.402c0.103,0.01,0.193,0.015,0.275,0.015
		c0.052,0,0.094,0,0.136,0c0.133-0.009,0.263-0.056,0.396-0.137C16.522,20.466,16.752,20.081,16.815,19.459z M12.851,4.261
		l0.03,1.281l0.351,3.613c0.181,0.082,0.356,0.167,0.526,0.252c0.166,0.086,0.332,0.189,0.496,0.312l3.154-3.521
		c0.103-0.143,0.194-0.3,0.275-0.473l0.26-0.503l0.09-0.684c0-0.438-0.09-0.814-0.274-1.129c-0.315-0.539-0.838-0.89-1.572-1.052
		c-0.271-0.082-0.54-0.124-0.806-0.124c-0.409,0-0.801,0.093-1.188,0.275c-0.317,0.163-0.59,0.364-0.816,0.603
		c-0.229,0.238-0.396,0.516-0.496,0.829L12.851,4.261z M22.973,15.086c0-0.559-0.441-1.67-1.1-1.967
		c-0.248-0.112-0.48-0.254-0.746-0.335l-0.35-0.031l-1.403,0.031l-3.96,0.305l-0.094,0.38l-0.26,0.503l3.689,2.774
		c0.254,0.254,0.566,0.423,0.932,0.503c0.283,0.091,0.562,0.138,0.837,0.138c0.395,0,0.779-0.102,1.145-0.304
		c0.641-0.275,1.03-0.732,1.173-1.372L22.973,15.086z M15.319,10.664l-0.153,0.152l0.063,0.092l0.09,0.243l4.298-0.488
		c0.206-0.039,0.407-0.079,0.613-0.115c0.202-0.033,0.384-0.094,0.547-0.176C21.631,10.038,22.185,9.58,22.438,9l0.06-0.319
		l-0.151-0.427c-0.185-0.396-0.588-0.624-1.22-0.686c-0.142-0.009-0.278-0.02-0.411-0.03c-0.499,0-0.976,0.092-1.435,0.275
		L15.319,10.664z"/>
</g>
</svg>
